# xmcd
#
# Track frame offsets:
#	150
#	23538
#	42997
#	60077
#	80475
#	102286
#	126431
#	144209
#	172584
#	189792
#	211956
#	240766
#
# Disc length: 4043 seconds
#
# Revision: 82525532
# Processed by: cddbd v1.5.2PL0 Copyright (c) Steve Scherf et al.
# Submitted via: EasyCDDAExtractor 15.3.0.1
#
DISCID=830fc90c
DTITLE=Gloria Estefan - Destiny
DYEAR=1996
DGENRE=Pop
TTITLE0=Destiny
TTITLE1=I'm Not Giving You Up
TTITLE2=Steal Your Heart
TTITLE3=The Heart Never Learns
TTITLE4=You'll Be Mine (Party Time)
TTITLE5=Path Of The Right Love
TTITLE6=Show Me The Way Back To Your Heart
TTITLE7=Along Came You (A Song For Emily)
TTITLE8=Higher
TTITLE9=I Know You Too Well
TTITLE10=Reach
TTITLE11=Data
EXTD=
EXTT0=
EXTT1=
EXTT2=
EXTT3=
EXTT4=
EXTT5=
EXTT6=
EXTT7=
EXTT8=
EXTT9=
EXTT10=
EXTT11=
PLAYORDER=
